<svg aria-hidden="true" style="position:absolute;width:0;height:0" xmlns="http://www.w3.org/2000/svg" overflow="hidden"><symbol id="icon-instagram" viewBox="0 0 32 32"><path d="M31.969 9.408c-.075-1.7-.35-2.869-.744-3.882a7.806 7.806 0 0 0-1.851-2.838A7.867 7.867 0 0 0 26.542.844C25.523.45 24.36.175 22.66.1 20.947.019 20.403 0 16.059 0s-4.888.019-6.595.094c-1.7.075-2.869.35-3.882.744a7.803 7.803 0 0 0-2.838 1.85A7.867 7.867 0 0 0 .9 5.52C.506 6.539.231 7.702.156 9.402c-.081 1.713-.1 2.257-.1 6.601s.019 4.888.094 6.595c.075 1.7.35 2.869.744 3.882a7.895 7.895 0 0 0 1.85 2.838 7.867 7.867 0 0 0 2.832 1.844c1.019.394 2.182.669 3.882.744 1.706.075 2.25.094 6.595.094s4.888-.019 6.595-.094c1.7-.075 2.869-.35 3.882-.744a8.184 8.184 0 0 0 4.682-4.682c.394-1.019.669-2.182.744-3.882.075-1.707.094-2.251.094-6.595s-.006-4.888-.081-6.595zm-2.882 13.065c-.069 1.563-.331 2.407-.55 2.969a5.31 5.31 0 0 1-3.038 3.038c-.563.219-1.413.481-2.969.55-1.688.075-2.194.094-6.464.094s-4.782-.019-6.464-.094c-1.563-.069-2.407-.331-2.969-.55a4.926 4.926 0 0 1-1.838-1.194 4.974 4.974 0 0 1-1.194-1.838c-.219-.563-.481-1.413-.55-2.969-.075-1.688-.094-2.194-.094-6.464s.019-4.782.094-6.464c.069-1.563.331-2.407.55-2.969a4.868 4.868 0 0 1 1.2-1.838A4.974 4.974 0 0 1 6.639 3.55c.563-.219 1.413-.481 2.969-.55 1.688-.075 2.194-.094 6.464-.094 4.276 0 4.782.019 6.464.094 1.563.069 2.407.331 2.969.55a4.914 4.914 0 0 1 1.838 1.194 4.974 4.974 0 0 1 1.194 1.838c.219.563.481 1.413.55 2.969.075 1.688.094 2.194.094 6.464s-.019 4.77-.094 6.458z"/><path d="M16.059 7.783c-4.538 0-8.22 3.682-8.22 8.22s3.682 8.22 8.22 8.22c4.539 0 8.22-3.682 8.22-8.22s-3.682-8.22-8.22-8.22zm0 13.552a5.333 5.333 0 0 1 0-10.664 5.333 5.333 0 0 1 0 10.664zM26.524 7.458a1.919 1.919 0 1 1-3.838 0 1.919 1.919 0 0 1 3.838 0z"/></symbol><symbol id="icon-twitter" viewBox="0 0 32 32"><path d="M32 6.078c-1.19.522-2.458.868-3.78 1.036a6.523 6.523 0 0 0 2.886-3.626 13.11 13.11 0 0 1-4.16 1.588A6.574 6.574 0 0 0 22.154 3c-3.632 0-6.556 2.948-6.556 6.562 0 .52.044 1.02.152 1.496-5.454-.266-10.28-2.88-13.522-6.862a6.605 6.605 0 0 0-.898 3.316 6.57 6.57 0 0 0 2.914 5.452 6.479 6.479 0 0 1-2.964-.808v.072c0 3.188 2.274 5.836 5.256 6.446a6.548 6.548 0 0 1-1.72.216 5.8 5.8 0 0 1-1.242-.112c.85 2.598 3.262 4.508 6.13 4.57a13.182 13.182 0 0 1-8.134 2.798c-.538 0-1.054-.024-1.57-.09A18.469 18.469 0 0 0 10.064 29c12.072 0 18.672-10 18.672-18.668 0-.29-.01-.57-.024-.848A13.087 13.087 0 0 0 32 6.078z"/></symbol><symbol id="icon-facebook" viewBox="0 0 32 32"><path d="M21.329 5.313h2.921V.225C23.746.156 22.013 0 19.994 0c-4.212 0-7.097 2.649-7.097 7.519V12H8.249v5.688h4.648V32h5.699V17.689h4.46l.708-5.688h-5.169V8.082c.001-1.644.444-2.769 2.735-2.769z"/></symbol><symbol id="icon-linkedin" viewBox="0 0 32 32"><path d="M31.992 32v-.001H32V20.263c0-5.741-1.236-10.164-7.948-10.164-3.227 0-5.392 1.771-6.276 3.449h-.093v-2.913h-6.364v21.364h6.627V21.42c0-2.785.528-5.479 3.977-5.479 3.399 0 3.449 3.179 3.449 5.657v10.401h6.62zM.528 10.636h6.635V32H.528V10.636zM3.843 0C1.722 0 0 1.721 0 3.843s1.721 3.879 3.843 3.879c2.121 0 3.843-1.757 3.843-3.879A3.846 3.846 0 0 0 3.843 0z"/></symbol><symbol id="icon-menu" viewBox="0 0 32 32"><path fill="#fff" style="fill:var(--color1, #fff)" d="M6.4 11.733V9.6h19.2v2.133H6.4zm0 5.334h19.2v-2.133H6.4v2.133zm0 5.333h19.2v-2.133H6.4V22.4z"/></symbol><symbol id="icon-close" viewBox="0 0 32 32"><path d="M23.733 10.304 22.229 8.8l-5.963 5.963L10.303 8.8l-1.504 1.504 5.963 5.963-5.963 5.963 1.504 1.504 5.963-5.963 5.963 5.963 1.504-1.504-5.963-5.963 5.963-5.963z"/></symbol><symbol id="icon-Logo" viewBox="0 0 38 32"><path d="m21.41 9.64-.709-.571a.52.52 0 0 0-.757.08l-9.806 11.897.152.177 2.428-2.366c-.081-.034-.148-.098-.189-.179a.411.411 0 0 1 .095-.494.362.362 0 0 1 .459-.011c.064.049.11.119.133.198l3.202-3.137a.265.265 0 0 1 .346 0l.162.126a.261.261 0 0 0 .363-.045l4.186-4.96a.502.502 0 0 0 .123-.372c-.006-.068-.026-.133-.058-.192s-.076-.11-.129-.149z"/><path d="M26.018 12.989a21.366 21.366 0 0 1-7.096 3.514 36.538 36.538 0 0 1-7.718 1.211c.052.406.147.804.281 1.189 1.471 1.406 12.548-.994 14.711-3.771.46-.577-.178-2.143-.178-2.143zm-13.154 5.868c-.073 0-.144-.023-.204-.066a.39.39 0 0 1-.157-.398c.014-.075.049-.145.101-.199s.117-.091.188-.106.145-.007.212.022.125.079.165.143.062.139.062.216c.001.051-.008.102-.026.15a.365.365 0 0 1-.342.239zM2.399 12.166l.087-.394 1.406.337c.116.226.188.475.211.731.027.271.01.546-.049.811a2.19 2.19 0 0 1-.465.994 1.844 1.844 0 0 1-.833.571 1.87 1.87 0 0 1-1.022.04 1.86 1.86 0 0 1-.903-.503 1.915 1.915 0 0 1-.514-.897 2.281 2.281 0 0 1 0-1.143c.058-.28.162-.547.308-.789.138-.22.323-.402.541-.531l.195.314c-.186.121-.346.282-.47.473s-.206.408-.244.635a1.89 1.89 0 0 0 .016.897c.073.278.217.529.416.726.205.21.462.354.741.417.271.08.557.08.827 0 .259-.09.492-.25.676-.463.189-.23.319-.507.379-.806a1.847 1.847 0 0 0-.065-1.091l-1.239-.331zM5.46 8.571 4.2 10.348l.541 1.023-.249.354-2.001-3.857.233-.337 4.073.926-.254.354-1.082-.24zm-.357-.091L2.94 7.966l1.082 2.051L5.104 8.48zM5.103 4.886l.325-.257 2.061 2.914L9.187 6.2l.206.291-2.017 1.594-2.272-3.2zM8.51 2.503l.362-.171L10.3 5.635l1.931-.926.141.331-2.293 1.103-1.569-3.64zM15.639 3.817l.081.36-2.607.646-.865-3.897 2.531-.623.076.354-2.163.531L13 2.571l1.904-.474.081.354-1.909.469.325 1.446 2.239-.549zM19.354 3.96l-.903-1.257a2.552 2.552 0 0 1-.303 0l-1.017.034.038 1.269h-.4l-.124-4L18.084 0a1.64 1.64 0 0 1 1.147.326c.14.119.253.271.33.443s.116.361.113.551a1.38 1.38 0 0 1-.2.8 1.265 1.265 0 0 1-.627.486l.947 1.337-.438.017zm-.378-1.88c.097-.094.173-.211.22-.34s.067-.269.055-.408A.955.955 0 0 0 18.932.6a1.258 1.258 0 0 0-.849-.234l-1.028.04.065 2 1.006-.034c.307.012.608-.091.849-.291zM22.216 2.897l-.195 1.366-.395-.063.2-1.343L20.706 0l.422.069.957 2.434L23.708.486l.379.086-1.871 2.326zM27.565 2.657l.471.646-.206.171-.471-.663-.297.749-.227-.103.303-.749-.779.109v-.274l.768-.091-.476-.646.211-.171.416.651.292-.754.233.103-.276.766.779-.114v.28l-.741.091zM29.371 7.263a1.65 1.65 0 0 1-.233-.691l.319-.149c.024.226.094.445.206.64.121.219.278.412.465.571.193.195.439.321.703.36.096.009.192-.006.28-.045s.167-.1.228-.178a.543.543 0 0 0 .124-.389 1.09 1.09 0 0 0-.13-.394 6.323 6.323 0 0 0-.33-.509 5.112 5.112 0 0 1-.389-.629 1.206 1.206 0 0 1-.141-.537c0-.212.075-.416.211-.571a.987.987 0 0 1 .449-.326c.196-.06.404-.06.6 0 .253.087.486.227.687.411.166.146.314.315.438.503.115.174.201.367.254.571l-.308.171a2.07 2.07 0 0 0-.238-.537 1.998 1.998 0 0 0-.362-.394 1.177 1.177 0 0 0-.698-.349c-.096-.009-.193.008-.282.049s-.166.104-.226.185a.526.526 0 0 0-.124.389.965.965 0 0 0 .13.406c.076.131.184.303.33.509.145.195.275.401.389.617.09.164.14.348.146.537a.866.866 0 0 1-.211.571.963.963 0 0 1-.454.326.991.991 0 0 1-.6 0 1.984 1.984 0 0 1-.692-.411 2.602 2.602 0 0 1-.541-.709zM34.812 8.097l-.763-1.143.281-.211 1.758 2.651-.281.211-.763-1.143-2.823 2.086-.227-.349 2.818-2.103zM33.601 12.794a1.91 1.91 0 0 1 .541-.891c.251-.238.557-.401.887-.474a1.852 1.852 0 0 1 1.017.04c.318.111.603.308.828.571.233.283.392.626.46.994.09.361.09.741 0 1.103a1.963 1.963 0 0 1-.541.891c-.258.244-.572.413-.91.491s-.69.062-1.021-.046a1.817 1.817 0 0 1-.828-.571 2.204 2.204 0 0 1-.46-.989 2.32 2.32 0 0 1 .027-1.12zm.708 1.817c.181.217.415.377.676.463.27.083.554.092.828.028s.529-.199.74-.394c.2-.194.347-.441.427-.714.075-.289.083-.593.022-.886s-.189-.565-.373-.794a1.537 1.537 0 0 0-.698-.463 1.53 1.53 0 0 0-.833 0 1.47 1.47 0 0 0-.736.394 1.606 1.606 0 0 0-.427.72 1.82 1.82 0 0 0 0 .886c.059.284.188.546.373.76zM33.19 19.428l1.401-.571c0-.103.032-.206.059-.314l.265-1.034-1.147-.314.103-.406 3.656 1.034-.368 1.446a1.828 1.828 0 0 1-.627 1.063 1.12 1.12 0 0 1-1.028.16c-.261-.06-.495-.212-.663-.431s-.261-.492-.262-.775l-1.493.571.103-.429zm1.812.16c.063.121.149.228.253.314s.222.148.349.184a.944.944 0 0 0 .756-.115 1.38 1.38 0 0 0 .46-.806l.26-1.029-1.834-.52-.26 1.029c-.1.306-.094.64.016.943zM31.248 23.109l-.276-.223 1.623-2.257 3.018 2.417-1.568 2.189-.276-.223 1.325-1.846-1.082-.863-1.184 1.651-.27-.217 1.212-1.651-1.12-.897-1.401 1.92zM29.982 27.663l-.773.046v-.274l.773-.006-.416-.68.211-.143.411.686.335-.766.233.131-.368.72.773-.046v.28h-.784l.416.68-.211.143-.411-.686-.357.743-.227-.137.395-.691zM22.951 27.206l.654.383c.11-.223.263-.418.449-.574s.402-.268.632-.329c.215-.071.441-.096.665-.074.195.016.381.087.541.206.144.115.25.275.303.457.065.226.054.468-.032.686a2.863 2.863 0 0 1-.541.794c.178.101.344.226.492.371.102.111.178.246.222.394a.804.804 0 0 1-.141.669c-.144.22-.36.376-.606.44a.895.895 0 0 1-.671 0c-.096-.044-.181-.11-.249-.195s-.116-.184-.141-.291a.815.815 0 0 1 .038-.571c.124-.26.287-.497.481-.703l-1.303-.766c-.05.269-.061.545-.032.817h-.33a2.871 2.871 0 0 1 .108-.994l-.681-.4.141-.32zm.941.571 1.433.84c.188-.189.343-.412.46-.657a.768.768 0 0 0 0-.514c-.024-.099-.072-.19-.138-.265s-.149-.131-.241-.164a1.028 1.028 0 0 0-.692 0c-.183.051-.354.144-.5.273s-.263.289-.344.47l.022.017zm2.034 2.286a.534.534 0 0 0 .043-.422.711.711 0 0 0-.173-.297 2.308 2.308 0 0 0-.449-.314 2.923 2.923 0 0 0-.427.571.6.6 0 0 0-.043.423c.017.065.047.126.088.178s.092.095.15.124c.138.055.29.055.427 0a.643.643 0 0 0 .362-.269l.022.006zM16.358 31.611l.076-4h.384l-.059 3.2 1.536-2.663h.189l1.439 2.709.054-3.183h.384l-.07 4h-.33l-1.59-2.989-1.682 2.931-.33-.006zM14.476 27.429c.247.249.424.566.511.915s.08.717-.019 1.062a2.056 2.056 0 0 1-.514.931c-.24.25-.542.424-.871.503a1.987 1.987 0 0 1-1.049-.034 1.939 1.939 0 0 1-1.412-1.423c-.083-.356-.077-.729.018-1.082s.275-.673.523-.93c.236-.249.531-.427.854-.514a1.98 1.98 0 0 1 1.044.034c.344.092.659.277.914.537zm-1.844-.2a1.432 1.432 0 0 0-.698.411 1.68 1.68 0 0 0-.411.76 1.726 1.726 0 0 0 0 .874c.064.278.201.532.395.731.204.21.455.362.73.44.275.074.563.074.838 0 .265-.069.507-.211.703-.411.198-.21.34-.473.411-.76a1.727 1.727 0 0 0 0-.88 1.62 1.62 0 0 0-.4-.731 1.598 1.598 0 0 0-.736-.434c-.273-.08-.56-.08-.833 0zM8.537 24.571l.146 1.571c.093.042.183.09.27.143l.882.537.595-1.109.352.211-1.893 3.446-1.233-.749a1.778 1.778 0 0 1-.811-.914 1.314 1.314 0 0 1 .119-1.086 1.27 1.27 0 0 1 .568-.571c.247-.108.52-.13.779-.063l-.157-1.68.384.263zm-.616 1.806c-.127.034-.246.094-.351.178s-.192.188-.257.308-.107.253-.122.39-.005.277.032.41c.127.296.346.536.622.68l.871.531.947-1.714-.871-.531a1.288 1.288 0 0 0-.871-.28v.029zM5.335 21.892l.243-.257 1.866 2.029-2.704 2.789-1.801-1.966.249-.257 1.531 1.663.925-.989-1.341-1.474.26-.263 1.368 1.486 1.006-1.034-1.601-1.726zM1.316 19.646l.13-.789.254.04-.146.811.719-.28.087.251-.73.263.6.537-.173.206-.579-.571-.135.811-.26-.051.151-.811-.725.274-.081-.223.725-.269-.6-.531.178-.206.584.537z"/></symbol><symbol id="icon-mail" viewBox="0 0 32 32"><path fill="none" stroke="#9da4bd" style="stroke:var(--color2, #9da4bd)" stroke-linejoin="round" stroke-linecap="round" stroke-width="1.333" d="M6.4 6.667h19.2c1.32 0 2.4 1.05 2.4 2.333v14c0 1.283-1.08 2.333-2.4 2.333H6.4C5.08 25.333 4 24.283 4 23V9c0-1.283 1.08-2.333 2.4-2.333z"/><path fill="none" stroke="#9da4bd" style="stroke:var(--color2, #9da4bd)" stroke-linejoin="round" stroke-linecap="round" stroke-width="1.333" d="m26.667 9.333-10.667 8-10.667-8"/></symbol><symbol id="icon-map" viewBox="0 0 32 32"><path fill="none" stroke="#9da4bd" style="stroke:var(--color2, #9da4bd)" stroke-linejoin="round" stroke-linecap="round" stroke-width="1.333" d="M26.667 13.818C26.667 21.454 16 28 16 28S5.333 21.455 5.333 13.818C5.333 8.396 10.109 4 16 4s10.667 4.396 10.667 9.818v0z"/><path fill="none" stroke="#9da4bd" style="stroke:var(--color2, #9da4bd)" stroke-linejoin="round" stroke-linecap="round" stroke-width="1.333" d="M16 18.667a4 4 0 1 0 0-8 4 4 0 0 0 0 8z"/></symbol><symbol id="icon-phone" viewBox="0 0 32 32"><path fill="none" stroke="#9da4bd" style="stroke:var(--color2, #9da4bd)" stroke-linejoin="round" stroke-linecap="round" stroke-width="1.333" d="M26.666 21.337v3.218a2.146 2.146 0 0 1-2.338 2.145 21.239 21.239 0 0 1-9.257-3.293 20.914 20.914 0 0 1-6.436-6.436 21.221 21.221 0 0 1-3.293-9.3 2.144 2.144 0 0 1 2.134-2.338h3.218a2.144 2.144 0 0 1 2.145 1.845c.136 1.03.388 2.041.751 3.014a2.144 2.144 0 0 1-.483 2.263l-1.362 1.362a17.162 17.162 0 0 0 6.436 6.436l1.362-1.362a2.146 2.146 0 0 1 2.263-.483c.973.363 1.984.615 3.014.751a2.144 2.144 0 0 1 1.845 2.177z"/></symbol></defs></svg>